<svg width="443" height="368" viewBox="0 0 443 368" fill="none" xmlns="http://www.w3.org/2000/svg">
<path d="M370.182 215.975C370.119 247.003 358.069 276.885 336.402 299.748C314.734 322.611 285.017 336.8 253.091 339.526C221.165 342.252 189.341 333.317 163.874 314.479C138.408 295.64 121.142 268.261 115.47 237.723C109.799 207.185 116.132 175.697 133.226 149.451C150.319 123.204 176.935 104.097 207.842 95.8862C238.75 87.6752 271.711 90.9541 300.248 105.078C328.785 119.202 350.832 143.15 362.054 172.213C362.334 172.943 362.607 173.673 362.873 174.41V174.417C364.058 177.656 365.101 180.955 366.003 184.315C368.786 194.652 370.191 205.292 370.182 215.975Z" fill="#3F3D56"/>
<path d="M226.809 130.468C221.001 127.427 214.553 125.711 207.956 125.449C201.359 125.188 194.787 126.389 188.742 128.96C183.42 131.202 177.816 135.225 176.04 142.489C183.221 138.386 192.517 144.869 194.365 155.268L193.933 155.383C192.957 162.586 195.136 170.428 199.354 174.894C199.668 172.879 200.441 170.957 201.618 169.267C202.795 167.577 204.346 166.162 206.158 165.125C209.257 163.153 212.686 161.72 215.051 158.33C217.856 154.311 218.568 148.437 219.682 143.078C220.796 137.72 222.909 131.961 226.809 130.468Z" fill="#FFC700"/>
<path d="M186.612 193.952C184.623 196.844 181.967 198.658 179.583 200.917C176.832 203.34 175.026 206.608 174.471 210.169C174.17 212.685 174.637 215.242 174.572 217.787C174.507 220.33 173.631 223.194 171.844 223.827C169.022 224.814 166.868 219.74 163.968 219.385C161.663 219.107 159.588 222.617 160.256 225.662C160.923 228.706 164.061 230.054 165.863 228.067C167.493 230.715 166.344 235.518 163.896 236.331C163.637 237.999 163.379 239.66 163.127 241.329C156.939 237.137 150.685 232.877 145.423 226.739C139.57 219.971 135.939 211.664 134.998 202.884C134.316 195.829 135.328 187.759 131.982 182.331C129.304 177.987 124.709 177.027 120.574 177.299C119.82 177.347 119.059 177.431 118.305 177.521C120.744 170.429 123.841 163.567 127.559 157.016C128.401 156.667 129.183 156.196 129.878 155.619C133.727 152.457 135.436 146.055 138.559 141.627C138.76 141.342 138.968 141.064 139.183 140.793C142.378 136.755 146.657 134.677 150.793 132.744C159.947 128.442 169.366 124.084 179.03 124.681L176.281 124.939C173.071 133.641 169.86 142.343 166.645 151.046C166.157 152.38 165.664 153.717 165.166 155.056C163.343 160.005 161.462 165.274 161.742 170.813C161.907 174.094 163.084 177.597 165.324 178.723C167.414 179.766 169.697 178.487 171.714 177.222C172.569 176.694 173.416 176.165 174.27 175.63C177.336 173.719 180.732 171.759 183.97 173.038C186.935 174.205 189.125 178.105 189.541 182.31C189.923 186.398 188.893 190.493 186.612 193.952Z" fill="#FFC700"/>
<path d="M204.846 253.365C195.892 248.028 186.938 242.691 177.984 237.354L178.136 236.975C172.569 239.027 170.258 248.608 171.178 256.442C172.098 264.277 175.218 271.28 176.794 278.914C178.919 289.361 178.117 300.167 174.471 310.212C186.245 297.423 196.664 283.523 205.573 268.721C206.818 266.856 207.766 264.82 208.387 262.682C209.044 260.403 208.81 257.97 207.729 255.848C206.996 254.801 206.005 253.948 204.846 253.365Z" fill="#FFC700"/>
<path d="M169.508 156.267C168.457 158.452 168.295 160.941 169.055 163.237C169.938 165.087 171.541 166.524 173.514 167.235L178.461 169.609C180.107 170.399 181.881 171.197 183.559 170.547C185.582 169.763 186.985 166.692 186.623 163.84C186.236 160.806 184.261 158.719 182.433 156.942C179.876 154.454 177.319 151.967 174.762 149.48L173.321 151.188C171.763 152.66 170.473 154.377 169.508 156.267Z" fill="#FFC700"/>
<path d="M343.66 188.705C345.886 189.212 348.112 189.719 350.337 190.227C349.95 197.504 346.223 204.239 341.226 206.679C339.144 207.694 336.825 208.069 335.102 209.967C333.544 211.691 332.754 214.373 332.029 216.938C330.758 221.415 329.488 225.891 328.217 230.367C326.853 235.191 325.101 240.55 321.554 242.288C318.51 243.782 315.028 241.954 312.687 238.889C310.347 235.824 308.918 231.702 307.532 227.684C307.618 232.063 305.515 236.359 302.535 237.881C299.548 239.403 295.915 238.027 293.92 234.628C292.484 232.188 291.888 228.97 290.48 226.496C289.073 224.021 286.122 222.603 284.586 224.925C283.574 226.468 283.703 228.831 283.2 230.791C282.947 232.093 282.282 233.285 281.296 234.203C280.31 235.121 279.054 235.719 277.701 235.914C276.457 235.886 275.231 235.614 274.1 235.113C272.968 234.612 271.953 233.894 271.117 233.001C266.72 228.647 263.858 223.059 262.939 217.036C262.316 214.148 262.395 211.159 263.169 208.306C264.052 205.602 266.184 203.517 268.303 204.031C269.695 201.181 266.946 197.4 264.469 197.734C261.984 198.067 260.039 200.646 258 202.627C255.968 204.608 253.125 206.047 251.079 204.08C251.124 204.799 250.873 205.507 250.38 206.047C249.887 206.587 249.192 206.915 248.449 206.959C248.375 206.964 248.302 206.965 248.228 206.964C246.868 206.586 245.603 205.937 244.516 205.06C239.828 202.231 233.876 204.107 230.545 209.459C232.627 200.882 235.678 191.04 242.075 189.024C244.689 188.197 247.539 188.878 250.009 187.446C254.381 184.909 255.264 175.324 251.488 171.369C251.969 175.109 251.876 179.474 249.836 182.032C247.797 184.59 243.518 182.921 243.777 179.14C243.719 179.672 243.488 180.173 243.119 180.57C242.749 180.967 242.259 181.241 241.718 181.352C241.178 181.463 240.615 181.406 240.111 181.188C239.606 180.971 239.185 180.604 238.909 180.141C237.552 178.139 237.667 174.866 238.629 172.475C239.621 170.309 241.043 168.354 242.815 166.719C246.225 163.182 249.686 159.602 253.635 157.378C257.591 155.153 262.157 154.403 266.12 156.613C268.209 157.781 270.047 159.727 272.18 160.756C272.681 161.057 273.238 161.259 273.82 161.352C274.402 161.444 274.997 161.425 275.571 161.295C276.145 161.164 276.687 160.926 277.166 160.593C277.645 160.26 278.052 159.839 278.363 159.354C278.387 159.316 278.41 159.279 278.433 159.24C280.02 156.543 279.273 152.54 279.862 149.169C280.917 143.212 287.07 140.425 290.481 144.359C287.932 143.726 285.297 146.646 284.981 150.184C284.658 153.722 286.503 157.294 288.973 158.365C293.123 160.144 297.186 155.668 300.324 151.525C303.598 147.188 306.877 142.853 310.16 138.52C310.684 137.783 311.273 137.09 311.919 136.449C312.947 135.479 314.318 134.923 315.754 134.895C317.19 134.866 318.583 135.367 319.652 136.296C322.969 138.917 324.527 144.29 327.248 147.987C331.196 153.36 337.105 154.667 342.605 155.71C346.704 156.481 350.806 157.257 354.911 158.038C357.647 162.966 360.034 168.068 362.055 173.309C354.528 176.631 348.144 181.975 343.66 188.705Z" fill="#FFC700"/>
<path d="M356.914 272.336C353.838 278.382 350.26 284.177 346.216 289.664C343.631 288.593 340.853 290.505 338.433 292.298C335.906 294.175 332.869 296.003 330.277 294.293C327.628 292.541 326.774 287.641 327.614 283.756C328.579 280.171 330.268 276.807 332.582 273.858C334.736 270.744 337.04 267.512 340.034 266.302C343.035 265.093 346.891 266.803 347.767 270.932L349.892 270.862C348.7 269.277 349.325 265.996 350.926 265.42C352.771 264.745 354.372 267.199 355.463 269.368C355.952 270.348 356.447 271.335 356.914 272.336Z" fill="#FFC700"/>
<path d="M275.521 242.976C270.953 243.254 267.335 237.81 264.931 232.455C262.526 227.099 260.332 220.974 256.211 218.248C253.856 216.69 251.171 216.477 248.616 215.722C247.167 215.368 245.826 214.684 244.705 213.728C243.583 212.772 242.713 211.571 242.167 210.225L239.269 209.091C235.216 211.053 231.504 213.615 228.268 216.686C224.569 220.489 222.266 225.364 221.712 230.56C221.159 236.175 223.203 242.436 227.022 244.546C230.039 246.212 233.553 245.162 236.61 246.688C240.429 248.594 242.696 254.132 243.555 259.599C244.413 265.067 244.196 270.749 244.81 276.279C245.424 281.809 247.116 287.563 250.619 290.397C255.001 293.943 261.433 290.996 263.399 284.541C264.364 281.375 264.331 277.802 265.052 274.515C266.322 268.726 269.751 264.432 272.47 259.684C275.189 254.936 277.33 248.487 275.521 242.976Z" fill="#FFC700"/>
<path d="M230.383 186.098C230.809 186.477 231.207 186.886 231.573 187.32C231.952 187.952 232.145 188.673 232.132 189.404C232.119 190.135 231.901 190.848 231.5 191.468C232.05 191.437 232.588 191.297 233.079 191.055C233.57 190.813 234.005 190.476 234.354 190.063C235.188 189.144 235.921 188.144 236.543 187.079C236.835 186.714 237.044 186.293 237.155 185.844C237.266 185.395 237.277 184.929 237.188 184.475C236.972 183.879 236.462 183.625 236.104 183.176C235.608 182.3 235.27 181.348 235.103 180.361C234.905 179.437 234.444 178.584 233.773 177.899C233.101 177.214 232.246 176.724 231.303 176.484L231.531 176.526C231.142 176.75 230.834 177.086 230.652 177.488C230.469 177.889 230.421 178.336 230.514 178.766C230.653 179.633 231.229 180.353 231.171 181.238C231.089 182.51 229.776 183.107 229.695 184.379C229.682 185.017 229.929 185.635 230.383 186.098Z" fill="#FFC700"/>
<path d="M222.557 164.481L222.577 164.477C222.717 164.353 222.848 164.218 222.967 164.075L222.557 164.481Z" fill="#FFC700"/>
<path d="M223.927 170.452C224.475 169.986 224.881 169.382 225.1 168.708C225.319 168.034 225.342 167.315 225.167 166.629C224.835 165.182 223.661 164.21 222.577 164.477C222.263 164.785 221.873 165.011 221.444 165.134C221.014 165.256 220.56 165.271 220.123 165.176C219.453 165.009 218.718 164.579 218.137 165.068C217.805 165.433 217.572 165.873 217.461 166.347C217.246 166.986 217.031 167.625 216.816 168.264C216.714 168.492 216.687 168.746 216.739 168.99C216.781 169.088 216.847 169.174 216.932 169.239C217.018 169.305 217.119 169.348 217.227 169.365L221.097 170.47C221.541 170.668 222.025 170.769 222.514 170.766C223.003 170.763 223.485 170.655 223.927 170.452Z" fill="#FFC700"/>
<path d="M321.313 252.887C320.717 251.941 320.12 250.996 319.524 250.051C318.938 248.956 318.138 247.983 317.167 247.186C316.742 246.841 316.194 246.674 315.642 246.721C315.09 246.769 314.58 247.026 314.224 247.437L314.193 247.474L314.266 248.014C315.862 249.671 316.95 251.726 317.408 253.949C317.544 254.915 317.496 255.914 317.616 256.885C317.628 257.334 317.732 257.777 317.922 258.188C318.111 258.599 318.383 258.97 318.72 259.279C319.659 259.886 320.762 258.991 321.43 257.898C322.028 257.001 322.295 255.935 322.191 254.872C322.042 254.159 321.743 253.483 321.313 252.887Z" fill="#FFC700"/>
<path d="M330.667 254.117C330.781 253.232 330.707 252.334 330.449 251.478C330.406 250.32 330.723 249.176 331.359 248.194C331.991 247.268 332.47 246.252 332.778 245.182C332.908 244.695 332.884 244.182 332.71 243.708C332.513 243.279 332.035 243.083 331.761 243.423L332.347 243.789C331.555 243.652 330.741 243.69 329.966 243.9C329.524 244.064 329.129 244.329 328.815 244.672C328.5 245.014 328.276 245.425 328.161 245.87C328.064 246.563 327.905 247.247 327.687 247.914C327.337 248.61 326.66 248.842 326.234 249.454C325.943 249.996 325.797 250.599 325.807 251.21C325.818 251.82 325.985 252.418 326.294 252.951C326.828 253.822 327.679 254.469 328.679 254.767C329.396 255.016 330.339 255.029 330.667 254.117Z" fill="#FFC700"/>
<path d="M347.326 258.982C347.585 259.635 347.932 260.252 348.358 260.817C349.155 261.594 350.239 261.116 351.207 260.927C352.085 260.793 352.984 260.891 353.809 261.212C354.634 261.532 355.354 262.063 355.893 262.747C355.517 260.935 354.698 259.237 353.505 257.796C352.311 256.354 350.778 255.211 349.033 254.462C346.766 253.702 344.377 253.34 341.978 253.394L341.568 253.495C342.612 256.437 345.891 256.371 347.326 258.982Z" fill="#FFC700"/>
<path d="M276.771 265L276.777 265.013L276.896 264.79L276.771 265Z" fill="#FFC700"/>
<path d="M274.244 269.736C273.693 270.704 273.219 271.712 272.826 272.751C272.306 274.433 271.962 276.161 271.798 277.91C271.67 278.904 271.63 280.174 272.274 280.659C272.459 280.777 272.682 280.827 272.902 280.798C273.121 280.769 273.323 280.664 273.468 280.502C273.825 280.135 274.118 279.715 274.334 279.256C275.598 277.147 276.58 274.891 277.256 272.542C277.96 270.05 277.792 267.402 276.777 265.013C275.933 266.587 275.088 268.161 274.244 269.736Z" fill="#FFC700"/>
<path d="M249.864 143.569C250.265 143.949 250.773 144.207 251.324 144.311C251.875 144.415 252.445 144.361 252.964 144.155C254.04 143.699 255.027 143.068 255.882 142.289C256.59 141.782 257.19 141.148 257.651 140.421C257.904 139.987 258.067 139.508 258.129 139.013C258.191 138.518 258.151 138.016 258.012 137.535C257.815 137.075 257.499 136.671 257.095 136.362C256.691 136.053 256.213 135.848 255.705 135.768C254.273 135.357 252.841 134.946 251.409 134.535L252.445 133.631C251.379 133.077 250.2 134.105 249.534 135.377C249.107 136.208 248.809 137.095 248.651 138.011C248.424 138.967 248.415 139.959 248.625 140.919C248.834 141.879 249.257 142.783 249.864 143.569Z" fill="#FFC700"/>
<path d="M275.143 135.353C275.547 135.784 276.105 136.05 276.703 136.097C277.302 136.144 277.897 135.969 278.367 135.607C278.772 135.313 279.108 134.939 279.354 134.511C279.599 134.082 279.749 133.609 279.793 133.121C279.894 132.03 279.337 130.818 278.542 130.724L278.724 129.703C277.192 129.435 275.307 129.382 274.486 131.183C274.209 131.873 274.124 132.621 274.239 133.353C274.354 134.085 274.666 134.774 275.143 135.353Z" fill="#FFC700"/>
<path d="M165.124 212.816C170.403 212.816 174.682 207.26 174.682 200.408C174.682 193.555 170.403 188 165.124 188C159.845 188 155.566 193.555 155.566 200.408C155.566 207.26 159.845 212.816 165.124 212.816Z" fill="#E6E6E6"/>
<path d="M345.643 362.433C350.206 361.257 353.22 357.812 352.374 354.739C351.529 351.666 347.145 350.128 342.582 351.305C338.019 352.481 335.005 355.926 335.85 358.999C336.696 362.072 341.08 363.61 345.643 362.433Z" fill="#E6E6E6"/>
<path d="M289.756 363.434C294.319 362.257 297.332 358.812 296.487 355.739C295.641 352.666 291.257 351.129 286.694 352.305C282.131 353.482 279.117 356.926 279.963 360C280.808 363.073 285.193 364.61 289.756 363.434Z" fill="#E6E6E6"/>
<path d="M355.571 317.416C360.134 316.24 363.148 312.795 362.303 309.722C361.457 306.649 357.073 305.112 352.51 306.288C347.947 307.465 344.933 310.909 345.779 313.982C346.624 317.055 351.008 318.593 355.571 317.416Z" fill="#E6E6E6"/>
<path d="M372.055 298.281C374.116 298.033 375.488 295.509 375.121 292.641C374.754 289.774 372.786 287.65 370.726 287.898C368.665 288.145 367.293 290.67 367.66 293.537C368.027 296.404 369.995 298.528 372.055 298.281Z" fill="#E6E6E6"/>
<path d="M376.228 264.318C378.289 264.071 379.661 261.546 379.294 258.679C378.927 255.812 376.959 253.688 374.899 253.935C372.838 254.183 371.466 256.707 371.833 259.575C372.2 262.442 374.168 264.566 376.228 264.318Z" fill="#E6E6E6"/>
<path d="M348.147 339.508C350.207 339.261 351.58 336.736 351.213 333.869C350.846 331.001 348.878 328.878 346.817 329.125C344.757 329.372 343.385 331.897 343.752 334.764C344.119 337.631 346.087 339.755 348.147 339.508Z" fill="#E6E6E6"/>
<path d="M313.839 367.552C315.899 367.305 317.272 364.78 316.905 361.913C316.537 359.046 314.57 356.922 312.509 357.169C310.449 357.416 309.076 359.941 309.444 362.808C309.811 365.676 311.779 367.8 313.839 367.552Z" fill="#E6E6E6"/>
<path d="M67.8387 316.995C72.4016 315.819 75.4154 312.374 74.57 309.301C73.7246 306.228 69.3403 304.69 64.7774 305.867C60.2144 307.043 57.2007 310.488 58.046 313.561C58.8914 316.634 63.2757 318.172 67.8387 316.995Z" fill="#E6E6E6"/>
<path d="M11.9488 317.998C16.5118 316.821 19.5255 313.377 18.6802 310.304C17.8348 307.231 13.4505 305.693 8.88747 306.869C4.32449 308.046 1.31079 311.491 2.15614 314.564C3.00149 317.637 7.3858 319.174 11.9488 317.998Z" fill="#E6E6E6"/>
<path d="M77.7694 271.977C82.3324 270.801 85.3461 267.356 84.5008 264.283C83.6554 261.21 79.271 259.672 74.708 260.849C70.1451 262.025 67.1313 265.47 67.9767 268.543C68.8221 271.616 73.2064 273.154 77.7694 271.977Z" fill="#E6E6E6"/>
<path d="M94.2511 252.843C96.3113 252.596 97.6839 250.071 97.3167 247.204C96.9495 244.337 94.9816 242.213 92.9213 242.46C90.8611 242.707 89.4886 245.232 89.8558 248.099C90.223 250.967 92.1908 253.09 94.2511 252.843Z" fill="#E6E6E6"/>
<path d="M98.4244 218.881C100.485 218.633 101.857 216.109 101.49 213.241C101.123 210.374 99.1549 208.25 97.0947 208.498C95.0344 208.745 93.6619 211.27 94.0291 214.137C94.3963 217.004 96.3641 219.128 98.4244 218.881Z" fill="#E6E6E6"/>
<path d="M42.0868 284.169C44.1471 283.922 45.5196 281.397 45.1524 278.53C44.7852 275.662 42.8174 273.539 40.7571 273.786C38.6968 274.033 37.3243 276.558 37.6915 279.425C38.0587 282.292 40.0266 284.416 42.0868 284.169Z" fill="#E6E6E6"/>
<path d="M70.3432 294.07C72.4034 293.823 73.7759 291.298 73.4087 288.431C73.0415 285.564 71.0737 283.44 69.0134 283.687C66.9532 283.935 65.5806 286.459 65.9478 289.327C66.315 292.194 68.2829 294.318 70.3432 294.07Z" fill="#E6E6E6"/>
<path d="M36.0348 322.114C38.095 321.867 39.4676 319.342 39.1004 316.475C38.7332 313.608 36.7653 311.484 34.705 311.731C32.6448 311.979 31.2723 314.503 31.6395 317.371C32.0067 320.238 33.9745 322.362 36.0348 322.114Z" fill="#E6E6E6"/>
<path d="M407.393 108.946C411.956 107.769 414.97 104.324 414.125 101.251C413.279 98.1781 408.895 96.6407 404.332 97.8171C399.769 98.9936 396.755 102.438 397.6 105.511C398.446 108.585 402.83 110.122 407.393 108.946Z" fill="#E6E6E6"/>
<path d="M417.324 63.9265C421.887 62.75 424.9 59.3051 424.055 56.2321C423.21 53.159 418.825 51.6216 414.262 52.798C409.699 53.9745 406.686 57.4194 407.531 60.4924C408.376 63.5655 412.761 65.1029 417.324 63.9265Z" fill="#E6E6E6"/>
<path d="M433.806 44.7931C435.866 44.5458 437.239 42.021 436.871 39.1538C436.504 36.2866 434.536 34.1627 432.476 34.41C430.416 34.6573 429.043 37.1821 429.41 40.0493C429.778 42.9165 431.745 45.0404 433.806 44.7931Z" fill="#E6E6E6"/>
<path d="M437.979 10.8308C440.039 10.5835 441.412 8.0587 441.044 5.1915C440.677 2.32429 438.709 0.20044 436.649 0.447736C434.589 0.695031 433.216 3.21983 433.584 6.08703C433.951 8.95424 435.919 11.0781 437.979 10.8308Z" fill="#E6E6E6"/>
<path d="M381.641 76.1191C383.701 75.8718 385.074 73.347 384.707 70.4798C384.34 67.6126 382.372 65.4888 380.311 65.7361C378.251 65.9834 376.879 68.5082 377.246 71.3754C377.613 74.2426 379.581 76.3664 381.641 76.1191Z" fill="#E6E6E6"/>
<path d="M409.898 86.0205C411.958 85.7732 413.33 83.2484 412.963 80.3812C412.596 77.514 410.628 75.3901 408.568 75.6374C406.508 75.8847 405.135 78.4095 405.502 81.2767C405.869 84.1439 407.837 86.2678 409.898 86.0205Z" fill="#E6E6E6"/>
<path d="M375.589 114.064C377.65 113.817 379.022 111.292 378.655 108.425C378.288 105.558 376.32 103.434 374.26 103.681C372.199 103.929 370.827 106.453 371.194 109.321C371.561 112.188 373.529 114.312 375.589 114.064Z" fill="#E6E6E6"/>
<path d="M51.0458 324.693C41.9019 324.693 35.9572 322.493 33.3261 318.12C28.1375 309.497 36.8274 294.367 59.154 273.15L61.0295 274.999C40.2904 294.708 31.2732 309.559 35.6391 316.816C38.4018 321.406 46.6237 323.051 59.4211 321.571C72.1252 320.103 88.9612 315.727 109.462 308.564C151.666 293.818 204.615 268.945 258.556 238.526C312.495 208.108 360.963 175.787 395.033 147.519C401.577 142.089 407.516 136.864 412.685 131.993C419.47 125.753 425.73 118.999 431.404 111.795C439.046 101.749 441.626 94.0133 438.863 89.4226C434.249 81.7552 414.868 82.4762 384.285 91.4556L383.509 88.9751C416.32 79.3426 435.723 79.0537 441.177 88.1183C444.566 93.7501 442.003 102.233 433.561 113.332C427.799 120.651 421.443 127.512 414.553 133.85C409.344 138.76 403.362 144.021 396.776 149.487C362.587 177.855 313.978 210.272 259.903 240.766C205.827 271.261 152.722 296.205 110.371 311.003C89.6794 318.232 72.6442 322.654 59.7383 324.145C56.8545 324.493 53.952 324.676 51.0458 324.693Z" fill="#3F3D56"/>
<g clip-path="url(#clip0_61_1565)">
<path d="M338.872 98.3092L345.856 96.4974M343.326 95.0832L343.861 97.0151C345.042 101.283 343.765 105.322 341.011 106.037" stroke="#E6E6E6" stroke-width="2" stroke-linecap="round" stroke-linejoin="round"/>
<path d="M340.939 101.914C341.512 103.985 344.929 104.925 348.693 104.044M350.864 110.728L352.449 100.999L358.846 108.657M357.413 106.958L351.227 108.563" stroke="#E6E6E6" stroke-width="2" stroke-linecap="round" stroke-linejoin="round"/>
</g>
<path d="M310.507 318H317.737M313.606 317C313.606 321.846 313.606 324 314.122 325" stroke="#E6E6E6" stroke-width="2" stroke-linecap="round" stroke-linejoin="round"/>
<path d="M316.704 321.5C316.704 323.786 314.639 326 313.089 326C311.54 326 310.507 324.865 310.507 324C310.507 322 311.54 321 313.606 321C315.672 321 318.77 321.57 318.77 323.857C318.77 325.381 318.081 326.428 316.704 327M318.77 333L322.902 324L327.034 333M326.104 331H319.7" stroke="#E6E6E6" stroke-width="2" stroke-linecap="round" stroke-linejoin="round"/>
<defs>
<clipPath id="clip0_61_1565">
<rect width="24.7383" height="24.0538" fill="white" transform="matrix(0.967963 -0.251094 0.266746 0.963767 333.544 94.5148)"/>
</clipPath>
</defs>
</svg>
