<svg width="438" height="323" viewBox="0 0 438 323" fill="none" xmlns="http://www.w3.org/2000/svg">
<g clip-path="url(#clip0_61_1497)">
<path d="M271.094 259.565H13.794C10.9608 259.562 8.24444 258.433 6.24101 256.426C4.23758 254.419 3.11064 251.698 3.10742 248.859V63.9365C3.11064 61.0982 4.23758 58.3771 6.24101 56.3701C8.24444 54.3632 10.9608 53.2342 13.794 53.231H271.094C273.927 53.2342 276.643 54.3632 278.647 56.3701C280.65 58.3771 281.777 61.0982 281.78 63.9365V248.859C281.777 251.698 280.65 254.419 278.647 256.426C276.643 258.433 273.927 259.562 271.094 259.565ZM13.794 58.8655C12.452 58.867 11.1653 59.4018 10.2163 60.3525C9.26734 61.3031 8.73352 62.5921 8.73196 63.9365V248.859C8.73347 250.204 9.26729 251.493 10.2163 252.443C11.1653 253.394 12.452 253.929 13.794 253.93H271.094C272.436 253.929 273.722 253.394 274.671 252.443C275.62 251.493 276.154 250.204 276.156 248.859V63.9365C276.154 62.5921 275.62 61.3031 274.671 60.3525C273.722 59.4018 272.436 58.867 271.094 58.8655H13.794Z" fill="#E6E6E6"/>
<path d="M136.976 322.845C148.409 322.845 157.677 313.56 157.677 302.107C157.677 290.653 148.409 281.369 136.976 281.369C125.542 281.369 116.274 290.653 116.274 302.107C116.274 313.56 125.542 322.845 136.976 322.845Z" fill="#E6E6E6"/>
<path d="M136.975 318.006C145.741 318.006 152.847 310.888 152.847 302.107C152.847 293.326 145.741 286.207 136.975 286.207C128.21 286.207 121.104 293.326 121.104 302.107C121.104 310.888 128.21 318.006 136.975 318.006Z" fill="white"/>
<path d="M144.927 310.79C144.832 310.791 144.738 310.772 144.65 310.736C144.562 310.699 144.482 310.646 144.416 310.578L128.511 294.646C128.382 294.509 128.311 294.327 128.313 294.138C128.316 293.949 128.391 293.769 128.525 293.636C128.658 293.502 128.838 293.426 129.026 293.423C129.215 293.421 129.397 293.492 129.534 293.622L145.438 309.554C145.539 309.656 145.607 309.785 145.635 309.925C145.663 310.066 145.649 310.211 145.594 310.343C145.539 310.476 145.447 310.589 145.328 310.668C145.209 310.748 145.069 310.79 144.927 310.79Z" fill="#FFC700"/>
<path d="M145.952 303.639C146.101 303.404 146.18 303.131 146.179 302.852C146.179 302.573 146.098 302.3 145.947 302.066C144.788 300.25 143.259 298.7 141.462 297.516C139.64 296.302 137.507 295.641 135.319 295.612C134.216 295.613 133.12 295.793 132.074 296.145C132.045 296.155 132.019 296.172 131.998 296.195C131.977 296.218 131.963 296.246 131.955 296.276C131.948 296.306 131.949 296.337 131.958 296.367C131.966 296.397 131.982 296.424 132.004 296.445L134.138 298.584C134.161 298.606 134.189 298.622 134.219 298.63C134.249 298.638 134.281 298.639 134.312 298.631C135.43 298.358 136.609 298.542 137.592 299.14C138.575 299.739 139.28 300.704 139.552 301.824L139.557 301.845C139.926 303.576 140.768 305.171 141.99 306.45L142.67 307.132C142.702 307.164 142.745 307.183 142.79 307.184C142.835 307.186 142.879 307.171 142.914 307.142C144.096 306.133 145.119 304.952 145.952 303.639Z" fill="#FFC700"/>
<path d="M138.547 305.463C137.977 305.463 137.413 305.351 136.887 305.132C136.361 304.914 135.882 304.594 135.48 304.191C135.077 303.787 134.757 303.308 134.539 302.781C134.321 302.254 134.209 301.689 134.209 301.118C134.209 301.115 134.209 301.111 134.209 301.107C134.218 300.727 134.153 300.35 134.015 299.996C133.878 299.642 133.672 299.318 133.409 299.045L131.264 296.895C131.232 296.862 131.188 296.844 131.143 296.842C131.097 296.84 131.053 296.856 131.018 296.885C129.858 297.893 128.831 299.044 127.962 300.311C127.799 300.546 127.709 300.825 127.703 301.111C127.698 301.398 127.778 301.679 127.933 301.92C129.074 303.737 130.587 305.29 132.374 306.476C134.198 307.694 136.34 308.349 138.532 308.36C139.647 308.357 140.754 308.18 141.814 307.837C141.844 307.828 141.87 307.811 141.892 307.788C141.913 307.765 141.928 307.737 141.935 307.707C141.942 307.677 141.942 307.646 141.933 307.616C141.925 307.586 141.909 307.559 141.887 307.537L139.742 305.388C139.72 305.366 139.692 305.35 139.662 305.342C139.632 305.334 139.6 305.333 139.57 305.341C139.235 305.422 138.891 305.463 138.547 305.463Z" fill="#FFC700"/>
<path d="M58.4308 322.845C69.864 322.845 79.1325 313.56 79.1325 302.107C79.1325 290.653 69.864 281.369 58.4308 281.369C46.9975 281.369 37.729 290.653 37.729 302.107C37.729 313.56 46.9975 322.845 58.4308 322.845Z" fill="#E6E6E6"/>
<path d="M58.4309 318.006C67.1964 318.006 74.3023 310.888 74.3023 302.107C74.3023 293.326 67.1964 286.207 58.4309 286.207C49.6654 286.207 42.5596 293.326 42.5596 302.107C42.5596 310.888 49.6654 318.006 58.4309 318.006Z" fill="white"/>
<path d="M64.5279 312.245C63.6459 312.245 62.407 311.926 60.5519 310.887C58.2461 309.653 56.1406 308.075 54.3073 306.208C52.4097 304.398 50.8251 302.284 49.6179 299.954C47.9534 296.922 48.2371 295.332 48.5543 294.653C48.9204 293.91 49.4962 293.291 50.2102 292.873C50.6195 292.605 51.0527 292.374 51.5042 292.185C51.5494 292.166 51.5914 292.147 51.6289 292.13C51.7783 292.046 51.944 291.994 52.115 291.978C52.286 291.963 52.4584 291.984 52.6207 292.04C52.9813 292.214 53.3021 292.46 53.5632 292.764C54.5029 293.821 55.2956 294.999 55.9198 296.269C56.1764 296.708 56.3342 297.198 56.3821 297.704C56.3446 298.205 56.142 298.68 55.806 299.053C55.7468 299.134 55.6881 299.212 55.6311 299.287C55.2873 299.739 55.2119 299.87 55.2616 300.104C55.3623 300.573 56.8892 300.981 58.124 302.215C59.3588 303.45 59.9379 305.144 60.4082 305.245C60.6513 305.297 60.7846 305.218 61.2509 304.861C61.3177 304.81 61.3864 304.757 61.4582 304.704C61.8319 304.351 62.3138 304.135 62.8255 304.091H62.8282C63.3411 304.144 63.8343 304.317 64.2676 304.597C65.5203 305.234 66.6907 306.021 67.753 306.941C68.0569 307.202 68.3037 307.522 68.4781 307.883C68.5341 308.046 68.5549 308.219 68.5393 308.39C68.5238 308.562 68.4721 308.728 68.3877 308.879C68.371 308.916 68.3525 308.957 68.3331 309.003C68.1429 309.455 67.9116 309.888 67.6422 310.297C67.2237 311.011 66.605 311.587 65.863 311.952C65.4458 312.15 64.9893 312.25 64.5279 312.245Z" fill="#FFC700"/>
<path d="M216.129 322.845C227.563 322.845 236.831 313.56 236.831 302.107C236.831 290.653 227.563 281.369 216.129 281.369C204.696 281.369 195.428 290.653 195.428 302.107C195.428 313.56 204.696 322.845 216.129 322.845Z" fill="#E6E6E6"/>
<path d="M216.129 318.006C224.895 318.006 232.001 310.888 232.001 302.107C232.001 293.326 224.895 286.207 216.129 286.207C207.364 286.207 200.258 293.326 200.258 302.107C200.258 310.888 207.364 318.006 216.129 318.006Z" fill="white"/>
<path d="M221.913 299.138C221.721 299.138 221.537 299.214 221.401 299.35C221.266 299.486 221.19 299.67 221.19 299.862V301.31C221.19 304.11 218.924 304.931 216.129 304.931C213.334 304.931 211.069 304.11 211.069 301.31V299.862C211.069 299.67 210.993 299.486 210.857 299.35C210.722 299.214 210.538 299.138 210.346 299.138C210.154 299.138 209.97 299.214 209.835 299.35C209.699 299.486 209.623 299.67 209.623 299.862V301.31C209.625 302.913 210.216 304.458 211.282 305.652C212.349 306.846 213.817 307.605 215.406 307.785V310.725C215.406 310.917 215.483 311.101 215.618 311.237C215.754 311.373 215.938 311.449 216.129 311.449C216.321 311.449 216.505 311.373 216.64 311.237C216.776 311.101 216.852 310.917 216.852 310.725V307.785C218.442 307.605 219.91 306.846 220.976 305.652C222.043 304.458 222.633 302.913 222.635 301.31V299.862C222.635 299.67 222.559 299.486 222.424 299.35C222.288 299.214 222.104 299.138 221.913 299.138Z" fill="#FFC700"/>
<path d="M216.129 302.882C215.243 302.899 214.365 302.698 213.574 302.297C213.29 302.183 213.041 301.995 212.855 301.752C212.668 301.509 212.551 301.22 212.515 300.915V298.22C212.507 297.151 214.113 296.282 216.101 296.278C216.11 296.278 216.12 296.278 216.129 296.278C218.104 296.266 219.722 297.117 219.744 298.178C219.744 298.192 219.744 298.206 219.744 298.22V300.915C219.754 301.994 218.137 302.874 216.129 302.882Z" fill="#FFC700"/>
<path d="M271.094 257.029H13.7942C11.632 257.027 9.55905 256.165 8.03012 254.634C6.5012 253.102 5.64116 251.025 5.63867 248.859V63.9365C5.64116 61.7705 6.5012 59.6938 8.03012 58.1622C9.55905 56.6306 11.632 55.769 13.7942 55.7665H271.094C273.256 55.769 275.329 56.6306 276.858 58.1622C278.387 59.6938 279.247 61.7705 279.249 63.9365V248.859C279.247 251.025 278.387 253.102 276.858 254.634C275.329 256.165 273.256 257.027 271.094 257.029Z" fill="white"/>
<path d="M141.184 170.369C156.225 170.369 168.419 158.154 168.419 143.087C168.419 128.019 156.225 115.804 141.184 115.804C126.143 115.804 113.95 128.019 113.95 143.087C113.95 158.154 126.143 170.369 141.184 170.369Z" fill="#FFB8B8"/>
<path d="M110.804 116.841C111.01 113.707 113.078 110.501 119.649 108.826C119.649 108.826 130.926 94.38 146.251 101.956C146.251 101.956 153.68 100.675 159.189 108.397C159.189 108.397 164.651 105.17 166.955 110.89C166.955 110.89 173.361 122.557 171.003 134.458C168.645 146.358 167.438 147.843 167.438 147.843C167.438 147.843 170.444 123.227 153.129 124.934C135.815 126.641 121.876 120.542 117.955 133.896C114.699 144.986 115.109 150.745 115.109 150.745C115.109 150.745 104.222 139.682 107.923 130.971C109.817 126.516 110.486 121.672 110.804 116.841Z" fill="#2F2E41"/>
<path d="M67.123 256.747H217.765C216.758 245.236 216.1 236.672 216.1 233.776C216.1 221.002 205.666 207.063 205.666 207.063L201.932 204.995L170.744 195.247L162.673 184.745C161.827 183.642 160.738 182.75 159.491 182.14C158.244 181.53 156.872 181.218 155.484 181.229L129.988 181.42C127.745 181.438 125.588 182.294 123.942 183.821L108.154 198.493L84.9978 209.57L84.9584 209.531L84.7165 209.711L81.28 212.19L79.0695 213.79C79.0695 213.79 73.2706 220.76 68.636 241.664C67.9386 244.808 67.4492 250.07 67.123 256.747Z" fill="#FFC700"/>
<path d="M437.366 23.3688H0.633978C0.464574 23.3651 0.303358 23.2951 0.184859 23.1737C0.06636 23.0524 0 22.8894 0 22.7197C0 22.5499 0.06636 22.3869 0.184859 22.2656C0.303358 22.1443 0.464574 22.0742 0.633978 22.0705H437.366C437.536 22.0742 437.697 22.1443 437.815 22.2656C437.934 22.3869 438 22.5499 438 22.7197C438 22.8894 437.934 23.0524 437.815 23.1737C437.697 23.2951 437.536 23.3651 437.366 23.3688Z" fill="#CACACA"/>
<path d="M14.9007 14.2809C18.7515 14.2809 21.8732 11.084 21.8732 7.14047C21.8732 3.1969 18.7515 0 14.9007 0C11.0499 0 7.92822 3.1969 7.92822 7.14047C7.92822 11.084 11.0499 14.2809 14.9007 14.2809Z" fill="#7E7AAB"/>
<path d="M38.9876 14.2809C42.8385 14.2809 45.9601 11.084 45.9601 7.14047C45.9601 3.1969 42.8385 0 38.9876 0C35.1368 0 32.0151 3.1969 32.0151 7.14047C32.0151 11.084 35.1368 14.2809 38.9876 14.2809Z" fill="#7E7AAB"/>
<path d="M63.0746 14.2809C66.9254 14.2809 70.0471 11.084 70.0471 7.14047C70.0471 3.1969 66.9254 0 63.0746 0C59.2237 0 56.1021 3.1969 56.1021 7.14047C56.1021 11.084 59.2237 14.2809 63.0746 14.2809Z" fill="#7E7AAB"/>
<path d="M422.934 4.36759H405.82C405.481 4.36014 405.159 4.22007 404.922 3.97742C404.685 3.73476 404.552 3.40878 404.552 3.06932C404.552 2.72985 404.685 2.40388 404.922 2.16122C405.159 1.91856 405.481 1.77851 405.82 1.77106H422.934C423.273 1.77851 423.596 1.91856 423.833 2.16122C424.07 2.40388 424.202 2.72985 424.202 3.06932C424.202 3.40878 424.07 3.73476 423.833 3.97742C423.596 4.22007 423.273 4.36014 422.934 4.36759Z" fill="#7E7AAB"/>
<path d="M422.934 9.23608H405.82C405.481 9.22863 405.159 9.08857 404.922 8.84591C404.685 8.60325 404.552 8.27728 404.552 7.93782C404.552 7.59835 404.685 7.27238 404.922 7.02972C405.159 6.78706 405.481 6.64701 405.82 6.63956H422.934C423.273 6.64701 423.596 6.78706 423.833 7.02972C424.07 7.27238 424.202 7.59835 424.202 7.93782C424.202 8.27728 424.07 8.60325 423.833 8.84591C423.596 9.08857 423.273 9.22863 422.934 9.23608Z" fill="#7E7AAB"/>
<path d="M422.934 14.1046H405.82C405.481 14.0971 405.159 13.9571 404.922 13.7144C404.685 13.4718 404.552 13.1458 404.552 12.8063C404.552 12.4669 404.685 12.1409 404.922 11.8982C405.159 11.6556 405.481 11.5155 405.82 11.5081H422.934C423.273 11.5155 423.596 11.6556 423.833 11.8982C424.07 12.1409 424.202 12.4669 424.202 12.8063C424.202 13.1458 424.07 13.4718 423.833 13.7144C423.596 13.9571 423.273 14.0971 422.934 14.1046Z" fill="#7E7AAB"/>
<path d="M411.002 268.728H325.14C322.307 268.725 319.591 267.596 317.587 265.589C315.584 263.582 314.457 260.861 314.454 258.023V199.111C314.457 196.273 315.584 193.552 317.587 191.545C319.591 189.538 322.307 188.409 325.14 188.406H411.002C413.836 188.409 416.552 189.538 418.555 191.545C420.559 193.552 421.686 196.273 421.689 199.111V258.023C421.686 260.861 420.559 263.582 418.555 265.589C416.552 267.596 413.836 268.725 411.002 268.728ZM325.14 194.04C323.798 194.042 322.511 194.576 321.563 195.527C320.614 196.478 320.08 197.767 320.078 199.111V258.023C320.08 259.367 320.614 260.656 321.563 261.607C322.511 262.557 323.798 263.092 325.14 263.094H411.002C412.344 263.092 413.631 262.557 414.58 261.607C415.529 260.656 416.063 259.367 416.065 258.023V199.111C416.063 197.767 415.529 196.478 414.58 195.527C413.631 194.576 412.344 194.042 411.002 194.04H325.14Z" fill="#E6E6E6"/>
<path d="M411.002 266.193H325.14C322.978 266.19 320.905 265.329 319.376 263.797C317.847 262.265 316.987 260.189 316.985 258.023V199.111C316.987 196.945 317.847 194.868 319.376 193.337C320.905 191.805 322.978 190.943 325.14 190.941H411.002C413.165 190.943 415.238 191.805 416.767 193.337C418.295 194.868 419.155 196.945 419.158 199.111V258.023C419.155 260.189 418.295 262.265 416.767 263.797C415.238 265.329 413.165 266.19 411.002 266.193Z" fill="white"/>
<path d="M376.123 210.118C376.619 207.016 375.215 204.732 371.491 203.443C367.787 200.223 362.312 199.45 359.026 204.607C357.699 204.528 356.393 204.965 355.381 205.828C354.368 206.69 353.727 207.91 353.59 209.234C350.572 212.749 353.924 225.648 354.917 230.563L360.215 230.511L370.792 230.406L376.123 230.354L378.155 218.829C379.389 215.478 378.886 212.539 376.123 210.118Z" fill="#E6E6E6"/>
<path d="M395.362 258.638C396.746 257.753 398.212 257.004 399.739 256.4L384.674 238.481L374.718 235.929C374.636 235.883 374.556 235.836 374.476 235.788L357.68 236.433L357.608 236.361L347.018 241.551L331.953 258.998C333.44 259.582 334.868 260.305 336.219 261.158L334.664 267.081H345.444L348.312 262.906H348.456C348.456 262.834 348.462 262.762 348.462 262.69L350.474 259.758C350.52 262.127 350.455 264.568 350.291 267.081H383.819C383.766 264.993 383.753 262.919 383.753 260.857L387.503 266.309C387.784 265.896 388.085 265.51 388.385 265.118L389.123 267.081H397.708L395.65 259.241C395.592 259.024 395.494 258.82 395.362 258.638Z" fill="#E6E6E6"/>
<path d="M411.002 132.961H325.14C322.307 132.957 319.591 131.829 317.587 129.822C315.584 127.815 314.457 125.093 314.454 122.255V63.3436C314.457 60.5053 315.584 57.7842 317.587 55.7772C319.591 53.7702 322.307 52.6413 325.14 52.6381H411.002C413.836 52.6413 416.552 53.7702 418.555 55.7772C420.559 57.7842 421.686 60.5053 421.689 63.3436V122.255C421.686 125.094 420.559 127.815 418.555 129.822C416.552 131.829 413.836 132.957 411.002 132.961ZM325.14 58.2725C323.798 58.2741 322.511 58.8089 321.563 59.7595C320.614 60.7102 320.08 61.9991 320.078 63.3436V122.255C320.08 123.6 320.614 124.889 321.563 125.839C322.511 126.79 323.798 127.325 325.14 127.326H411.002C412.344 127.325 413.631 126.79 414.58 125.839C415.529 124.889 416.063 123.6 416.065 122.255V63.3436C416.063 61.9991 415.529 60.7102 414.58 59.7595C413.631 58.8089 412.344 58.2741 411.002 58.2725H325.14Z" fill="#E6E6E6"/>
<path d="M411.002 130.425H325.14C322.978 130.423 320.905 129.561 319.376 128.029C317.847 126.498 316.987 124.421 316.985 122.255V63.3435C316.987 61.1775 317.847 59.1009 319.376 57.5693C320.905 56.0376 322.978 55.1761 325.14 55.1736H411.002C413.165 55.1761 415.238 56.0376 416.767 57.5693C418.295 59.1009 419.156 61.1775 419.158 63.3435V122.255C419.156 124.421 418.295 126.498 416.767 128.029C415.238 129.561 413.165 130.423 411.002 130.425Z" fill="white"/>
<path d="M357.226 84.2205C357.483 86.8392 358.644 89.2864 360.507 91.1412C362.37 92.9959 364.821 94.1423 367.436 94.3832C370.052 94.6241 372.67 93.9444 374.84 92.4611C377.009 90.9778 378.595 88.7835 379.325 86.2556C379.691 85.8738 383.746 81.5327 382.278 78.0791C381.553 76.2054 381.149 74.2226 381.083 72.2142C380.997 70.9139 380.139 69.5833 377.412 68.8879C377.412 68.8879 372.731 62.8922 366.371 66.0365C366.371 66.0365 363.287 65.505 361.001 68.7099C361.001 68.7099 358.734 67.3706 357.778 69.7445C357.778 69.7445 355.119 74.5868 356.098 79.526C356.385 81.1109 356.762 82.6783 357.226 84.2205Z" fill="#E6E6E6"/>
<path d="M398.584 125.192C396.66 116.516 394.254 113.623 394.254 113.623L393.336 112.959L391.91 111.93L391.81 111.855L391.793 111.872L382.182 107.274L375.63 101.185C374.946 100.551 374.052 100.196 373.12 100.188L362.538 100.109C361.962 100.104 361.393 100.234 360.876 100.487C360.358 100.74 359.906 101.11 359.555 101.568L356.205 105.927L343.261 109.973L341.711 110.831C341.711 110.831 337.381 116.616 337.381 121.918C337.381 123.12 337.108 126.674 336.69 131.452H399.212C399.156 129.353 398.947 127.26 398.584 125.192Z" fill="#E6E6E6"/>
<path d="M357.407 212.518H245.151C241.447 212.514 237.895 211.038 235.276 208.414C232.657 205.791 231.183 202.233 231.179 198.522V121.501C231.183 117.79 232.657 114.233 235.276 111.609C237.895 108.985 241.447 107.509 245.151 107.505H357.407C361.111 107.509 364.663 108.985 367.282 111.609C369.901 114.233 371.374 117.79 371.379 121.501V198.522C371.374 202.233 369.901 205.791 367.282 208.414C364.663 211.038 361.111 212.514 357.407 212.518ZM245.151 114.871C243.396 114.873 241.714 115.573 240.473 116.815C239.233 118.058 238.535 119.743 238.533 121.501V198.522C238.535 200.28 239.233 201.965 240.473 203.208C241.714 204.451 243.396 205.15 245.151 205.152H357.407C359.162 205.15 360.844 204.451 362.085 203.208C363.325 201.965 364.023 200.28 364.025 198.522V121.501C364.023 119.743 363.325 118.058 362.085 116.815C360.844 115.573 359.162 114.873 357.407 114.871H245.151Z" fill="#E6E6E6"/>
<path d="M357.406 110.819H245.151C242.324 110.823 239.613 111.95 237.614 113.953C235.614 115.955 234.489 118.671 234.486 121.503V198.525C234.49 201.357 235.615 204.071 237.614 206.073C239.614 208.075 242.324 209.201 245.151 209.203H357.406C360.233 209.201 362.943 208.075 364.943 206.073C366.942 204.071 368.067 201.357 368.071 198.525V121.503C368.067 118.671 366.942 115.955 364.943 113.953C362.944 111.95 360.233 110.823 357.406 110.819Z" fill="white"/>
<path d="M321.027 143.018C325.868 143.018 329.793 139.086 329.793 134.236C329.793 129.386 325.868 125.454 321.027 125.454C316.185 125.454 312.26 129.386 312.26 134.236C312.26 139.086 316.185 143.018 321.027 143.018Z" fill="#2F2E41"/>
<path d="M303.018 172.859C315.283 172.859 325.226 162.899 325.226 150.612C325.226 138.325 315.283 128.365 303.018 128.365C290.753 128.365 280.81 138.325 280.81 150.612C280.81 162.899 290.753 172.859 303.018 172.859Z" fill="#2F2E41"/>
<path d="M299.159 174.212C309.126 174.212 317.206 166.118 317.206 156.134C317.206 146.149 309.126 138.055 299.159 138.055C289.193 138.055 281.113 146.149 281.113 156.134C281.113 166.118 289.193 174.212 299.159 174.212Z" fill="#9E616A"/>
<path d="M292.356 133.62C295.862 132.423 299.624 132.192 303.249 132.951C306.875 133.709 310.23 135.429 312.965 137.931C315.699 140.434 317.713 143.626 318.794 147.174C319.876 150.723 319.986 154.497 319.113 158.102C309.635 158.358 299.822 157.983 291.015 152.403L289.986 146.356L287.421 151.605C284.241 152.149 281.094 152.507 278.664 149.64C279.347 146.003 280.971 142.609 283.374 139.798C285.776 136.986 288.874 134.856 292.356 133.62Z" fill="#2F2E41"/>
<path d="M334.165 112.743C340.686 111.345 347.827 114.276 351.806 119.637C355.786 124.997 356.587 132.455 354.202 138.694C351.769 145.058 346.516 149.835 341.604 154.55C336.693 159.265 331.748 164.53 330.274 171.183C329.212 175.975 330.091 180.993 332.717 185.137C335.343 189.281 339.502 192.213 344.283 193.289C338.132 194.458 331.724 195.619 325.683 193.971C319.642 192.322 314.117 186.964 314.464 180.701C314.714 176.189 317.789 172.42 320.463 168.781C324.82 162.851 328.447 156.415 331.266 149.614C332.61 146.368 333.786 142.903 333.409 139.409C333.068 136.806 331.902 134.382 330.082 132.494C328.261 130.605 325.883 129.353 323.299 128.921L321.686 126.654C322.224 119.995 327.644 114.142 334.165 112.743Z" fill="#2F2E41"/>
<path d="M340.563 208.706C339.394 196.774 332.79 197.243 332.79 197.243L315.351 193.829L307.713 181.125L288.538 180.376L281.712 192.366L267.686 194.122L267.675 194.321C266.284 194.427 261.269 195.527 260.264 205.778C260.171 206.721 260.042 207.874 259.878 209.203H340.615C340.598 209.028 340.58 208.864 340.563 208.706Z" fill="#2F2E41"/>
</g>
<defs>
<clipPath id="clip0_61_1497">
<rect width="438" height="322.845" fill="white"/>
</clipPath>
</defs>
</svg>
