<svg width="560" height="149" viewBox="0 0 560 149" fill="none" xmlns="http://www.w3.org/2000/svg">
<ellipse cx="266.5" cy="114" rx="266.5" ry="114" transform="matrix(-1 0 0 1 434 30)" fill="#ECC331"/>
<ellipse cx="155.5" cy="92" rx="155.5" ry="92" transform="matrix(-1 0 0 1 560 98)" fill="#ECC331"/>
<ellipse cx="201" cy="134.5" rx="201" ry="134.5" transform="matrix(-1 0 0 1 444 28)" fill="#F1D36A"/>
<ellipse cx="138" cy="103.5" rx="138" ry="103.5" transform="matrix(-1 0 0 1 246 62)" fill="#F4DB85"/>
<rect width="9.42857" height="37.7143" rx="1" transform="matrix(-1 0 0 1 264.643 0)" fill="#FFC700"/>
<rect width="7.07143" height="28.2857" rx="1" transform="matrix(-1.19249e-08 -1 -1 1.19249e-08 274.071 14.1431)" fill="#FFC700"/>
<rect width="9.42857" height="37.7143" rx="1" transform="matrix(-0.995056 0.0993197 0.0993197 0.995056 223.232 8.00635)" fill="#FFC700"/>
<rect width="7.07143" height="28.2857" rx="1" transform="matrix(-0.0993198 -0.995056 -0.995056 0.0993198 234.019 21.1426)" fill="#FFC700"/>
<rect width="9.42857" height="37.7143" rx="1" transform="matrix(-0.995056 -0.0993197 -0.0993197 0.995056 305.942 7.76416)" fill="#FFC700"/>
<rect width="7.07143" height="28.2857" rx="1" transform="matrix(0.0993197 -0.995056 -0.995056 -0.0993197 313.919 22.7734)" fill="#FFC700"/>
<path d="M293.546 142.415C295.25 143.821 295.491 146.342 294.085 148.046C292.679 149.75 290.157 149.991 288.454 148.585L293.546 142.415ZM263.508 41.1703C263.349 49.8323 264.029 57.9388 265.295 61.7366L257.705 64.2659C255.971 59.0615 255.349 49.7497 255.51 41.0232L263.508 41.1703ZM265.295 61.7366C265.187 61.4126 265.156 61.5746 265.821 62.2602C266.39 62.8467 267.239 63.5841 268.372 64.4307C270.628 66.1173 273.749 68.0452 277.363 69.8669C284.688 73.5596 293.406 76.5008 300.5 76.5012L300.5 84.5012C291.593 84.5007 281.562 80.9424 273.762 77.0106C269.813 75.02 266.278 72.8544 263.581 70.838C262.237 69.833 261.036 68.8166 260.079 67.8307C259.219 66.9439 258.188 65.7151 257.705 64.2659L265.295 61.7366ZM300.5 76.5012C305.159 76.5015 309.065 77.778 311.583 80.5591C314.154 83.3992 314.593 87.0494 313.827 90.2448C312.352 96.4056 306.217 102.174 298.16 102.497L297.84 94.5032C302.282 94.3253 305.398 91.0948 306.047 88.3817C306.345 87.1401 306.065 86.3845 305.652 85.928C305.185 85.4125 303.841 84.5014 300.5 84.5012L300.5 76.5012ZM298.16 102.497C292.34 102.73 285.269 104.142 279.465 106.515C276.567 107.7 274.134 109.064 272.356 110.523C270.562 111.994 269.673 113.36 269.368 114.518L261.632 112.482C262.511 109.14 264.714 106.444 267.283 104.337C269.867 102.217 273.068 100.488 276.437 99.1103C283.165 96.3589 291.16 94.7708 297.84 94.5032L298.16 102.497ZM269.368 114.518C269.37 114.511 269.34 114.62 269.371 114.899C269.403 115.181 269.491 115.58 269.68 116.107C270.065 117.179 270.772 118.515 271.814 120.079C273.895 123.202 276.961 126.718 280.232 130.09C283.479 133.435 286.813 136.522 289.345 138.78C290.608 139.907 291.665 140.821 292.404 141.452C292.773 141.767 293.062 142.011 293.257 142.175C293.355 142.256 293.429 142.318 293.478 142.359C293.502 142.379 293.52 142.394 293.531 142.403C293.537 142.408 293.541 142.411 293.544 142.413C293.545 142.414 293.546 142.415 293.546 142.415C293.546 142.415 293.546 142.415 293.546 142.416C293.546 142.415 293.546 142.415 291 145.5C288.454 148.585 288.453 148.585 288.453 148.584C288.452 148.584 288.452 148.584 288.451 148.583C288.45 148.582 288.448 148.58 288.446 148.579C288.441 148.575 288.435 148.57 288.428 148.564C288.412 148.551 288.391 148.533 288.362 148.509C288.306 148.462 288.223 148.394 288.117 148.305C287.905 148.127 287.598 147.868 287.21 147.537C286.434 146.874 285.333 145.922 284.02 144.751C281.401 142.415 277.916 139.19 274.491 135.661C271.091 132.157 267.635 128.235 265.156 124.515C263.919 122.657 262.837 120.72 262.151 118.811C261.483 116.952 261.044 114.714 261.632 112.482L269.368 114.518Z" fill="#F4DB85"/>
</svg>
