<svg width="169" height="169" viewBox="0 0 169 169" fill="none" xmlns="http://www.w3.org/2000/svg">
<path d="M157.216 116.966L133.761 93.5111L109.883 14.7215C109.125 12.2107 107.797 9.90937 106.001 7.99748C104.206 6.08558 101.993 4.615 99.5348 3.70079C97.0766 2.78658 94.4403 2.45354 91.832 2.72772C89.2238 3.0019 86.7143 3.87587 84.5 5.28125C82.2857 3.87587 79.7762 3.0019 77.168 2.72772C74.5597 2.45354 71.9234 2.78658 69.4652 3.70079C67.0071 4.615 64.7938 6.08558 62.9986 7.99748C61.2034 9.90937 59.8748 12.2107 59.117 14.7215L35.2391 93.5111L11.7838 116.966C9.30858 119.442 7.91809 122.8 7.91809 126.301C7.91809 129.802 9.30858 133.16 11.7838 135.636L33.3643 157.216C35.8402 159.691 39.1979 161.082 42.6989 161.082C46.1999 161.082 49.5576 159.691 52.0335 157.216L83.9125 125.344C84.1171 125.139 84.3086 124.935 84.5 124.723C84.6914 124.935 84.8829 125.139 85.0875 125.344L116.966 157.216C119.442 159.691 122.8 161.082 126.301 161.082C129.802 161.082 133.16 159.691 135.636 157.216L157.216 135.636C159.691 133.16 161.082 129.802 161.082 126.301C161.082 122.8 159.691 119.442 157.216 116.966ZM42.6989 144.145L24.8747 126.321L32.1364 119.059L49.9606 136.883L42.6989 144.145ZM76.5781 104.8C76.5832 106.534 76.2438 108.253 75.5798 109.855C74.9157 111.457 73.9401 112.912 72.7096 114.134L61.1833 125.661L43.3591 107.837L47.8679 103.328C48.7907 102.408 49.4712 101.274 49.8484 100.027L74.2742 19.336C74.3574 19.0679 74.5338 18.8384 74.7715 18.6892C75.0092 18.5399 75.2925 18.4806 75.5701 18.5221C75.8477 18.5636 76.1013 18.7031 76.285 18.9153C76.4687 19.1276 76.5703 19.3986 76.5715 19.6793L76.5781 104.8ZM107.936 125.78L96.2904 114.134C95.0599 112.912 94.0843 111.457 93.4202 109.855C92.7562 108.253 92.4168 106.534 92.4219 104.8V19.6396C92.4231 19.3589 92.5247 19.088 92.7084 18.8757C92.8921 18.6634 93.1457 18.524 93.4233 18.4825C93.7009 18.441 93.9842 18.5003 94.2219 18.6495C94.4596 18.7988 94.636 19.0283 94.7192 19.2964L119.145 99.9873C119.522 101.234 120.203 102.368 121.125 103.288L126.143 108.305L107.936 125.78ZM126.301 144.145L119.138 136.989L137.379 119.534L144.145 126.301L126.301 144.145Z" fill="#161616"/>
</svg>
