<svg width="539" height="334" viewBox="0 0 539 334" fill="none" xmlns="http://www.w3.org/2000/svg">
<path d="M168.96 103.872L162.624 104.448C159.296 104.704 157.184 107.008 156.288 111.36L132.096 216H105.792L85.632 130.56H85.056L65.472 216H38.4L11.904 105.216L0.96 104.64V88.32H48.576V103.872L42.24 104.448C38.272 104.832 36.288 106.496 36.288 109.44C36.288 109.952 36.352 110.528 36.48 111.168L53.184 185.28H53.952L73.92 98.496H98.688L119.424 185.664H119.808L136.128 105.408L125.76 104.64V88.32H168.96V103.872ZM231.405 86.016C246.637 86.016 259.373 91.392 269.613 102.144C279.853 112.896 284.973 129.344 284.973 151.488C284.973 173.504 279.853 190.208 269.613 201.6C259.501 212.864 245.741 218.496 228.333 218.496C211.053 218.496 197.485 212.864 187.629 201.6C177.773 190.336 172.845 173.952 172.845 152.448C172.845 140.672 174.573 130.368 178.029 121.536C181.485 112.576 186.029 105.664 191.661 100.8C203.053 90.944 216.301 86.016 231.405 86.016ZM196.845 151.488C196.845 183.232 207.853 199.104 229.869 199.104C241.645 199.104 249.901 194.24 254.637 184.512C258.989 175.936 261.165 165.44 261.165 153.024C261.165 141.888 259.245 131.648 255.405 122.304C253.229 117.184 249.901 113.152 245.421 110.208C241.069 107.264 235.373 105.792 228.333 105.792C221.293 105.792 215.213 108.096 210.093 112.704C205.101 117.312 201.645 122.88 199.725 129.408C197.805 135.936 196.845 143.296 196.845 151.488ZM297.849 216V200.448L304.185 199.872C307.897 199.488 309.753 197.696 309.753 194.496V105.216L298.809 104.64V88.32H351.225C366.073 88.32 377.465 91.072 385.401 96.576C393.337 102.08 397.305 111.104 397.305 123.648C397.305 132.352 395.001 139.52 390.393 145.152C385.913 150.784 380.537 154.88 374.265 157.44C378.873 159.104 382.521 163.008 385.209 169.152L399.033 199.296L409.977 199.68V216H362.553V200.448L368.121 199.872C371.065 199.488 372.537 198.336 372.537 196.416C372.537 195.648 372.281 194.752 371.769 193.728L362.745 174.528C361.337 171.328 359.737 169.088 357.945 167.808C356.281 166.4 353.849 165.696 350.649 165.696H333.177V199.104L345.657 199.68V216H297.849ZM333.177 147.456H349.881C365.625 147.456 373.497 140.416 373.497 126.336C373.497 118.272 371.385 113.024 367.161 110.592C363.065 108.16 356.409 106.944 347.193 106.944H333.177V147.456ZM417.46 216V200.448L423.796 199.872C427.508 199.488 429.364 197.696 429.364 194.496V105.216L418.42 104.64V88.32H471.028C489.844 88.32 504.5 93.312 514.997 103.296C525.62 113.28 530.932 128.064 530.932 147.648C530.932 159.808 529.332 170.432 526.132 179.52C522.933 188.48 518.581 195.52 513.076 200.64C502.068 210.88 488.372 216 471.988 216H417.46ZM452.788 106.944V197.568H472.372C483.38 197.568 491.956 193.6 498.101 185.664C504.245 177.728 507.317 166.208 507.317 151.104C507.317 121.664 494.837 106.944 469.876 106.944H452.788Z" fill="white"/>
<path d="M24.198 299.568V249.174H15.54C13.838 249.174 12.987 250.321 12.987 252.615V257.832L1.665 257.055V238.185H59.718V257.055L48.396 257.832V252.615C48.396 251.357 48.211 250.469 47.841 249.951C47.471 249.433 46.583 249.174 45.177 249.174H37.629V302.232L46.398 302.565V312H15.096V303.009L20.979 302.676C23.125 302.454 24.198 301.418 24.198 299.568ZM95.7332 236.853C104.539 236.853 111.902 239.961 117.822 246.177C123.742 252.393 126.702 261.902 126.702 274.704C126.702 287.432 123.742 297.089 117.822 303.675C111.976 310.187 104.021 313.443 93.9572 313.443C83.9672 313.443 76.1232 310.187 70.4252 303.675C64.7272 297.163 61.8782 287.691 61.8782 275.259C61.8782 268.451 62.8772 262.494 64.8752 257.388C66.8732 252.208 69.5002 248.212 72.7562 245.4C79.3422 239.702 87.0012 236.853 95.7332 236.853ZM75.7532 274.704C75.7532 293.056 82.1172 302.232 94.8452 302.232C101.653 302.232 106.426 299.42 109.164 293.796C111.68 288.838 112.938 282.77 112.938 275.592C112.938 269.154 111.828 263.234 109.608 257.832C108.35 254.872 106.426 252.541 103.836 250.839C101.32 249.137 98.0272 248.286 93.9572 248.286C89.8872 248.286 86.3722 249.618 83.4122 252.282C80.5262 254.946 78.5282 258.165 77.4182 261.939C76.3082 265.713 75.7532 269.968 75.7532 274.704ZM193.198 286.137V306.228C186.316 310.964 177.769 313.332 167.557 313.332C157.345 313.332 149.353 310.15 143.581 303.786C137.883 297.348 135.034 287.839 135.034 275.259C135.034 269.709 135.737 264.714 137.143 260.274C138.623 255.834 140.51 252.171 142.804 249.285C145.172 246.399 147.91 243.994 151.018 242.07C156.938 238.592 163.635 236.853 171.109 236.853C178.657 236.853 185.687 238.37 192.199 241.404V260.274L180.877 261.051V252.393C180.877 251.283 180.729 250.469 180.433 249.951C179.619 248.545 176.252 247.842 170.332 247.842C156.05 247.842 148.909 256.685 148.909 274.371C148.909 293.019 155.347 302.343 168.223 302.343C173.329 302.343 177.251 301.455 179.989 299.679V283.14H179.878L171.331 282.807V273.372H198.97V282.252L196.417 282.474C195.233 282.622 194.382 282.955 193.864 283.473C193.42 283.917 193.198 284.805 193.198 286.137ZM257.647 312H204.922V303.009L208.585 302.676C210.731 302.454 211.804 301.418 211.804 299.568V247.953L205.477 247.62V238.185H256.315V256.611L244.993 257.388V252.948C244.993 251.69 244.808 250.802 244.438 250.284C244.068 249.766 243.18 249.507 241.774 249.507H225.346V268.488H250.987V279.81H225.346V300.567H243.217C244.549 300.567 245.4 300.308 245.77 299.79C246.14 299.198 246.325 298.273 246.325 297.015V291.465L257.647 292.242V312ZM285.711 299.568V249.174H277.053C275.351 249.174 274.5 250.321 274.5 252.615V257.832L263.178 257.055V238.185H321.231V257.055L309.909 257.832V252.615C309.909 251.357 309.724 250.469 309.354 249.951C308.984 249.433 308.096 249.174 306.69 249.174H299.142V302.232L307.911 302.565V312H276.609V303.009L282.492 302.676C284.638 302.454 285.711 301.418 285.711 299.568ZM377.701 299.013V279.81H346.288V302.232L352.726 302.565V312H325.864V303.009L329.527 302.676C331.673 302.454 332.746 301.418 332.746 299.568V247.953L326.419 247.62V238.185H353.281V247.176L349.618 247.509C348.434 247.657 347.583 247.99 347.065 248.508C346.547 248.952 346.288 249.84 346.288 251.172V268.377H377.701V247.953L371.374 247.62V238.185H398.236V247.176L394.573 247.509C392.427 247.731 391.354 248.915 391.354 251.061V302.232L397.681 302.565V312H370.819V303.009L374.482 302.676C375.592 302.528 376.406 302.232 376.924 301.788C377.442 301.27 377.701 300.345 377.701 299.013ZM457.278 312H404.553V303.009L408.216 302.676C410.362 302.454 411.435 301.418 411.435 299.568V247.953L405.108 247.62V238.185H455.946V256.611L444.624 257.388V252.948C444.624 251.69 444.439 250.802 444.069 250.284C443.699 249.766 442.811 249.507 441.405 249.507H424.977V268.488H450.618V279.81H424.977V300.567H442.848C444.18 300.567 445.031 300.308 445.401 299.79C445.771 299.198 445.956 298.273 445.956 297.015V291.465L457.278 292.242V312ZM464.696 312V303.009L468.359 302.676C470.505 302.454 471.578 301.418 471.578 299.568V247.953L465.251 247.62V238.185H495.554C504.138 238.185 510.724 239.776 515.312 242.958C519.9 246.14 522.194 251.357 522.194 258.609C522.194 263.641 520.862 267.785 518.198 271.041C515.608 274.297 512.5 276.665 508.874 278.145C511.538 279.107 513.647 281.364 515.201 284.916L523.193 302.343L529.52 302.565V312H502.103V303.009L505.322 302.676C507.024 302.454 507.875 301.788 507.875 300.678C507.875 300.234 507.727 299.716 507.431 299.124L502.214 288.024C501.4 286.174 500.475 284.879 499.439 284.139C498.477 283.325 497.071 282.918 495.221 282.918H485.12V302.232L492.335 302.565V312H464.696ZM485.12 272.373H494.777C503.879 272.373 508.43 268.303 508.43 260.163C508.43 255.501 507.209 252.467 504.767 251.061C502.399 249.655 498.551 248.952 493.223 248.952H485.12V272.373Z" fill="white"/>
<path d="M2.838 65V62.888H4.62C5.676 62.888 6.534 62.778 7.194 62.558C7.898 62.294 8.404 61.788 8.712 61.04C9.064 60.292 9.24 59.17 9.24 57.674V25.202C9.24 23.662 9.064 22.54 8.712 21.836C8.404 21.088 7.898 20.604 7.194 20.384C6.534 20.12 5.676 19.988 4.62 19.988H2.838V17.876H20.064V19.988H18.348C17.336 19.988 16.478 20.098 15.774 20.318C15.114 20.538 14.608 21.022 14.256 21.77C13.904 22.474 13.728 23.574 13.728 25.07V62.426H28.908C30.14 62.426 31.108 62.206 31.812 61.766C32.516 61.326 33 60.71 33.264 59.918C33.572 59.126 33.77 58.202 33.858 57.146L34.386 51.14H36.828L36.366 65H2.838ZM42.4689 65V62.888H44.2509C45.2629 62.888 46.1209 62.778 46.8249 62.558C47.5289 62.338 48.0349 61.876 48.3429 61.172C48.6949 60.424 48.8709 59.302 48.8709 57.806V25.202C48.8709 23.662 48.6949 22.54 48.3429 21.836C48.0349 21.088 47.5289 20.604 46.8249 20.384C46.1649 20.12 45.3069 19.988 44.2509 19.988H42.4689V17.876H73.8189L74.2149 29.096H71.7729L71.4429 25.466C71.3989 24.366 71.2009 23.464 70.8489 22.76C70.5409 22.012 70.0349 21.44 69.3309 21.044C68.6709 20.648 67.7249 20.45 66.4929 20.45H53.3589V39.062H69.3309V41.57H53.3589V62.426H68.4069C69.6829 62.426 70.6729 62.228 71.3769 61.832C72.1249 61.436 72.6529 60.886 72.9609 60.182C73.3129 59.434 73.5329 58.51 73.6209 57.41L74.0169 53.78H76.4589L75.9969 65H42.4689ZM89.0283 65V62.888H91.8003C92.8563 62.888 93.7143 62.778 94.3743 62.558C95.0783 62.338 95.6063 61.876 95.9583 61.172C96.3103 60.424 96.4863 59.302 96.4863 57.806V20.45H88.5003C87.3123 20.45 86.3883 20.648 85.7283 21.044C85.0683 21.44 84.6063 22.012 84.3423 22.76C84.0783 23.464 83.8803 24.366 83.7483 25.466L83.4843 28.7H80.9763L81.3723 17.876H116.154L116.55 28.7H114.042L113.778 25.466C113.734 24.366 113.558 23.464 113.25 22.76C112.942 22.012 112.458 21.44 111.798 21.044C111.182 20.648 110.236 20.45 108.96 20.45H100.908V57.674C100.908 59.17 101.084 60.292 101.436 61.04C101.788 61.788 102.294 62.294 102.954 62.558C103.658 62.778 104.538 62.888 105.594 62.888H108.3V65H89.0283ZM120.236 32.99C121.6 32.55 122.722 31.978 123.602 31.274C124.482 30.57 125.142 29.8 125.582 28.964C126.022 28.128 126.242 27.314 126.242 26.522C126.242 26.038 126.088 25.642 125.78 25.334C125.472 25.026 125.098 24.762 124.658 24.542C124.262 24.278 123.844 24.014 123.404 23.75C122.964 23.442 122.59 23.09 122.282 22.694C121.974 22.254 121.82 21.704 121.82 21.044C121.82 19.988 122.15 19.196 122.81 18.668C123.47 18.14 124.284 17.876 125.252 17.876C126.396 17.876 127.408 18.316 128.288 19.196C129.168 20.076 129.608 21.418 129.608 23.222C129.608 25.73 128.882 28.084 127.43 30.284C125.978 32.484 123.58 34.09 120.236 35.102V32.99ZM149.698 65.66C147.586 65.66 145.716 65.44 144.088 65C142.504 64.516 141.184 63.856 140.128 63.02C139.072 62.14 138.28 61.15 137.752 60.05C137.224 58.95 136.96 57.762 136.96 56.486C136.96 55.782 137.092 55.166 137.356 54.638C137.62 54.066 137.972 53.648 138.412 53.384C138.896 53.076 139.49 52.922 140.194 52.922C140.238 54.902 140.612 56.662 141.316 58.202C142.064 59.742 143.142 60.952 144.55 61.832C146.002 62.712 147.828 63.152 150.028 63.152C153.152 63.152 155.528 62.338 157.156 60.71C158.784 59.038 159.598 56.816 159.598 54.044C159.598 52.328 159.268 50.854 158.608 49.622C157.948 48.39 156.848 47.246 155.308 46.19C153.812 45.09 151.788 43.946 149.236 42.758C147.3 41.834 145.628 40.91 144.22 39.986C142.812 39.062 141.668 38.072 140.788 37.016C139.908 35.916 139.248 34.684 138.808 33.32C138.368 31.956 138.148 30.416 138.148 28.7C138.148 26.412 138.698 24.41 139.798 22.694C140.898 20.978 142.416 19.636 144.352 18.668C146.332 17.7 148.598 17.216 151.15 17.216C153.526 17.216 155.55 17.568 157.222 18.272C158.938 18.932 160.258 19.812 161.182 20.912C162.15 22.012 162.634 23.222 162.634 24.542C162.634 25.686 162.326 26.566 161.71 27.182C161.094 27.754 160.236 28.04 159.136 28.04C159.136 26.456 158.85 25.048 158.278 23.816C157.706 22.54 156.826 21.55 155.638 20.846C154.45 20.142 152.91 19.79 151.018 19.79C149.17 19.79 147.586 20.142 146.266 20.846C144.946 21.55 143.956 22.54 143.296 23.816C142.636 25.092 142.306 26.566 142.306 28.238C142.306 30.042 142.636 31.56 143.296 32.792C143.956 34.024 144.968 35.124 146.332 36.092C147.74 37.06 149.566 38.072 151.81 39.128C154.142 40.272 156.21 41.46 158.014 42.692C159.818 43.88 161.248 45.31 162.304 46.982C163.36 48.61 163.888 50.634 163.888 53.054C163.888 55.606 163.316 57.828 162.172 59.72C161.072 61.568 159.466 63.02 157.354 64.076C155.242 65.132 152.69 65.66 149.698 65.66ZM200.407 65.66C198.295 65.66 196.425 65.44 194.797 65C193.213 64.516 191.893 63.856 190.837 63.02C189.781 62.14 188.989 61.15 188.461 60.05C187.933 58.95 187.669 57.762 187.669 56.486C187.669 55.782 187.801 55.166 188.065 54.638C188.329 54.066 188.681 53.648 189.121 53.384C189.605 53.076 190.199 52.922 190.903 52.922C190.947 54.902 191.321 56.662 192.025 58.202C192.773 59.742 193.851 60.952 195.259 61.832C196.711 62.712 198.537 63.152 200.737 63.152C203.861 63.152 206.237 62.338 207.865 60.71C209.493 59.038 210.307 56.816 210.307 54.044C210.307 52.328 209.977 50.854 209.317 49.622C208.657 48.39 207.557 47.246 206.017 46.19C204.521 45.09 202.497 43.946 199.945 42.758C198.009 41.834 196.337 40.91 194.929 39.986C193.521 39.062 192.377 38.072 191.497 37.016C190.617 35.916 189.957 34.684 189.517 33.32C189.077 31.956 188.857 30.416 188.857 28.7C188.857 26.412 189.407 24.41 190.507 22.694C191.607 20.978 193.125 19.636 195.061 18.668C197.041 17.7 199.307 17.216 201.859 17.216C204.235 17.216 206.259 17.568 207.931 18.272C209.647 18.932 210.967 19.812 211.891 20.912C212.859 22.012 213.343 23.222 213.343 24.542C213.343 25.686 213.035 26.566 212.419 27.182C211.803 27.754 210.945 28.04 209.845 28.04C209.845 26.456 209.559 25.048 208.987 23.816C208.415 22.54 207.535 21.55 206.347 20.846C205.159 20.142 203.619 19.79 201.727 19.79C199.879 19.79 198.295 20.142 196.975 20.846C195.655 21.55 194.665 22.54 194.005 23.816C193.345 25.092 193.015 26.566 193.015 28.238C193.015 30.042 193.345 31.56 194.005 32.792C194.665 34.024 195.677 35.124 197.041 36.092C198.449 37.06 200.275 38.072 202.519 39.128C204.851 40.272 206.919 41.46 208.723 42.692C210.527 43.88 211.957 45.31 213.013 46.982C214.069 48.61 214.597 50.634 214.597 53.054C214.597 55.606 214.025 57.828 212.881 59.72C211.781 61.568 210.175 63.02 208.063 64.076C205.951 65.132 203.399 65.66 200.407 65.66ZM226.017 65V62.888H228.789C229.845 62.888 230.703 62.778 231.363 62.558C232.067 62.338 232.595 61.876 232.947 61.172C233.299 60.424 233.475 59.302 233.475 57.806V20.45H225.489C224.301 20.45 223.377 20.648 222.717 21.044C222.057 21.44 221.595 22.012 221.331 22.76C221.067 23.464 220.869 24.366 220.737 25.466L220.473 28.7H217.965L218.361 17.876H253.143L253.539 28.7H251.031L250.767 25.466C250.723 24.366 250.547 23.464 250.239 22.76C249.931 22.012 249.447 21.44 248.787 21.044C248.171 20.648 247.225 20.45 245.949 20.45H237.897V57.674C237.897 59.17 238.073 60.292 238.425 61.04C238.777 61.788 239.283 62.294 239.943 62.558C240.647 62.778 241.527 62.888 242.583 62.888H245.289V65H226.017ZM278.147 65.66C274.891 65.66 272.053 65.176 269.633 64.208C267.257 63.196 265.409 61.612 264.089 59.456C262.813 57.256 262.175 54.374 262.175 50.81V25.07C262.175 23.574 261.999 22.474 261.647 21.77C261.295 21.022 260.767 20.538 260.063 20.318C259.403 20.098 258.567 19.988 257.555 19.988H255.839V17.876H272.999V19.988H271.283C270.271 19.988 269.413 20.12 268.709 20.384C268.005 20.604 267.477 21.088 267.125 21.836C266.817 22.54 266.663 23.662 266.663 25.202V51.14C266.663 53.868 267.147 56.09 268.115 57.806C269.127 59.478 270.535 60.732 272.339 61.568C274.143 62.36 276.255 62.756 278.675 62.756C281.491 62.756 283.779 62.25 285.539 61.238C287.343 60.182 288.663 58.774 289.499 57.014C290.379 55.21 290.819 53.208 290.819 51.008V25.07C290.819 23.574 290.643 22.474 290.291 21.77C289.939 21.022 289.411 20.538 288.707 20.318C288.047 20.098 287.211 19.988 286.199 19.988H284.483V17.876H300.125V19.988H298.475C297.463 19.988 296.605 20.12 295.901 20.384C295.197 20.604 294.669 21.088 294.317 21.836C294.009 22.54 293.855 23.662 293.855 25.202V51.14C293.855 54 293.261 56.53 292.073 58.73C290.885 60.886 289.125 62.58 286.793 63.812C284.505 65.044 281.623 65.66 278.147 65.66ZM303.636 65V62.888H305.418C306.474 62.888 307.332 62.778 307.992 62.558C308.696 62.294 309.202 61.788 309.51 61.04C309.862 60.292 310.038 59.17 310.038 57.674V25.07C310.038 23.574 309.862 22.474 309.51 21.77C309.202 21.022 308.696 20.538 307.992 20.318C307.288 20.098 306.43 19.988 305.418 19.988H303.636V17.876H322.644C327.088 17.876 330.85 18.844 333.93 20.78C337.054 22.672 339.408 25.4 340.992 28.964C342.576 32.528 343.368 36.818 343.368 41.834C343.368 46.63 342.62 50.766 341.124 54.242C339.628 57.718 337.34 60.38 334.26 62.228C331.224 64.076 327.396 65 322.776 65H303.636ZM321.522 62.426C325.438 62.426 328.65 61.656 331.158 60.116C333.666 58.532 335.514 56.222 336.702 53.186C337.934 50.106 338.55 46.322 338.55 41.834C338.55 37.39 337.934 33.562 336.702 30.35C335.47 27.138 333.6 24.696 331.092 23.024C328.628 21.308 325.46 20.45 321.588 20.45H314.526V62.426H321.522ZM355.236 65V62.888H357.546C358.558 62.888 359.416 62.778 360.12 62.558C360.824 62.338 361.33 61.876 361.638 61.172C361.99 60.424 362.166 59.302 362.166 57.806V43.682L349.89 23.156C349.406 22.32 348.966 21.682 348.57 21.242C348.174 20.758 347.712 20.428 347.184 20.252C346.7 20.076 346.018 19.988 345.138 19.988H344.412V17.876H359.658V19.988H357.348C356.16 19.988 355.39 20.142 355.038 20.45C354.73 20.758 354.576 21.154 354.576 21.638C354.576 22.166 354.708 22.716 354.972 23.288C355.28 23.86 355.61 24.432 355.962 25.004L360.978 33.584C361.374 34.244 361.748 34.926 362.1 35.63C362.496 36.29 362.848 36.95 363.156 37.61C363.508 38.27 363.838 38.908 364.146 39.524C364.454 40.14 364.74 40.734 365.004 41.306C365.356 40.514 365.862 39.524 366.522 38.336C367.226 37.104 367.974 35.806 368.766 34.442L373.914 25.664C374.354 24.96 374.662 24.3 374.838 23.684C375.058 23.068 375.168 22.54 375.168 22.1C375.168 21.396 374.926 20.868 374.442 20.516C373.958 20.164 373.1 19.988 371.868 19.988H369.36V17.876H383.946V19.988H383.286C382.494 19.988 381.834 20.098 381.306 20.318C380.778 20.538 380.272 20.956 379.788 21.572C379.304 22.144 378.754 22.98 378.138 24.08L366.654 43.616V57.674C366.654 59.17 366.808 60.292 367.116 61.04C367.468 61.788 367.996 62.294 368.7 62.558C369.404 62.778 370.262 62.888 371.274 62.888H373.584V65H355.236ZM409.799 65V62.888H412.571C413.627 62.888 414.485 62.778 415.145 62.558C415.849 62.338 416.377 61.876 416.729 61.172C417.081 60.424 417.257 59.302 417.257 57.806V20.45H409.271C408.083 20.45 407.159 20.648 406.499 21.044C405.839 21.44 405.377 22.012 405.113 22.76C404.849 23.464 404.651 24.366 404.519 25.466L404.255 28.7H401.747L402.143 17.876H436.925L437.321 28.7H434.813L434.549 25.466C434.505 24.366 434.329 23.464 434.021 22.76C433.713 22.012 433.229 21.44 432.569 21.044C431.953 20.648 431.007 20.45 429.731 20.45H421.679V57.674C421.679 59.17 421.855 60.292 422.207 61.04C422.559 61.788 423.065 62.294 423.725 62.558C424.429 62.778 425.309 62.888 426.365 62.888H429.071V65H409.799ZM441.534 65V62.888H443.316C444.372 62.888 445.23 62.778 445.89 62.558C446.594 62.294 447.1 61.788 447.408 61.04C447.76 60.292 447.936 59.17 447.936 57.674V25.07C447.936 23.574 447.76 22.474 447.408 21.77C447.1 21.022 446.594 20.538 445.89 20.318C445.186 20.098 444.328 19.988 443.316 19.988H441.534V17.876H458.892V19.988H457.044C456.032 19.988 455.174 20.12 454.47 20.384C453.766 20.604 453.238 21.088 452.886 21.836C452.578 22.54 452.424 23.662 452.424 25.202V39.062H476.316V25.202C476.316 23.662 476.14 22.54 475.788 21.836C475.48 21.088 474.974 20.604 474.27 20.384C473.61 20.12 472.752 19.988 471.696 19.988H469.914V17.876H487.206V19.988H485.424C484.412 19.988 483.554 20.12 482.85 20.384C482.146 20.604 481.618 21.088 481.266 21.836C480.958 22.54 480.804 23.662 480.804 25.202V57.806C480.804 59.302 480.98 60.424 481.332 61.172C481.684 61.876 482.19 62.338 482.85 62.558C483.554 62.778 484.412 62.888 485.424 62.888H487.206V65H469.914V62.888H471.696C472.752 62.888 473.61 62.778 474.27 62.558C474.974 62.294 475.48 61.788 475.788 61.04C476.14 60.292 476.316 59.17 476.316 57.674V41.636H452.424V57.674C452.424 59.17 452.578 60.292 452.886 61.04C453.238 61.788 453.766 62.294 454.47 62.558C455.174 62.778 456.032 62.888 457.044 62.888H458.892V65H441.534ZM492.573 65V62.888H494.355C495.367 62.888 496.225 62.778 496.929 62.558C497.633 62.338 498.139 61.876 498.447 61.172C498.799 60.424 498.975 59.302 498.975 57.806V25.202C498.975 23.662 498.799 22.54 498.447 21.836C498.139 21.088 497.633 20.604 496.929 20.384C496.269 20.12 495.411 19.988 494.355 19.988H492.573V17.876H523.923L524.319 29.096H521.877L521.547 25.466C521.503 24.366 521.305 23.464 520.953 22.76C520.645 22.012 520.139 21.44 519.435 21.044C518.775 20.648 517.829 20.45 516.597 20.45H503.463V39.062H519.435V41.57H503.463V62.426H518.511C519.787 62.426 520.777 62.228 521.481 61.832C522.229 61.436 522.757 60.886 523.065 60.182C523.417 59.434 523.637 58.51 523.725 57.41L524.121 53.78H526.563L526.101 65H492.573Z" fill="white"/>
</svg>
