<svg width="205" height="206" viewBox="0 0 205 206" fill="none" xmlns="http://www.w3.org/2000/svg">
<path d="M30.75 77.375H174.25M30.75 128.625H174.25M25.625 103C25.625 113.095 27.6134 123.092 31.4768 132.419C35.3401 141.746 41.0027 150.22 48.1412 157.359C55.2797 164.497 63.7543 170.16 73.0812 174.023C82.4081 177.887 92.4046 179.875 102.5 179.875C112.595 179.875 122.592 177.887 131.919 174.023C141.246 170.16 149.72 164.497 156.859 157.359C163.997 150.22 169.66 141.746 173.523 132.419C177.387 123.092 179.375 113.095 179.375 103C179.375 82.6115 171.276 63.058 156.859 48.6412C142.442 34.2243 122.889 26.125 102.5 26.125C82.1115 26.125 62.558 34.2243 48.1412 48.6412C33.7243 63.058 25.625 82.6115 25.625 103Z" stroke="#161616" stroke-width="17" stroke-linecap="round" stroke-linejoin="round"/>
<path d="M98.2292 26.125C83.8394 49.1842 76.2105 75.8193 76.2105 103C76.2105 130.181 83.8394 156.816 98.2292 179.875M106.771 26.125C121.161 49.1842 128.79 75.8193 128.79 103C128.79 130.181 121.161 156.816 106.771 179.875" stroke="#161616" stroke-width="17" stroke-linecap="round" stroke-linejoin="round"/>
</svg>
