<svg width="205" height="205" viewBox="0 0 205 205" fill="none" xmlns="http://www.w3.org/2000/svg">
<path d="M76.875 102.5C76.875 109.296 79.5748 115.814 84.3804 120.62C89.186 125.425 95.7038 128.125 102.5 128.125C109.296 128.125 115.814 125.425 120.62 120.62C125.425 115.814 128.125 109.296 128.125 102.5C128.125 95.7038 125.425 89.186 120.62 84.3804C115.814 79.5748 109.296 76.875 102.5 76.875C95.7038 76.875 89.186 79.5748 84.3804 84.3804C79.5748 89.186 76.875 95.7038 76.875 102.5Z" stroke="#161616" stroke-width="17" stroke-linecap="round" stroke-linejoin="round"/>
<path d="M153.75 102.5H153.835M51.25 102.5H51.3354M25.625 68.3333C25.625 63.8026 27.4248 59.4573 30.6286 56.2536C33.8323 53.0498 38.1776 51.25 42.7083 51.25H162.292C166.822 51.25 171.168 53.0498 174.371 56.2536C177.575 59.4573 179.375 63.8026 179.375 68.3333V136.667C179.375 141.197 177.575 145.543 174.371 148.746C171.168 151.95 166.822 153.75 162.292 153.75H42.7083C38.1776 153.75 33.8323 151.95 30.6286 148.746C27.4248 145.543 25.625 141.197 25.625 136.667V68.3333Z" stroke="#161616" stroke-width="17" stroke-linecap="round" stroke-linejoin="round"/>
</svg>
